<?xml version="1.0" encoding="utf-8"?>
<!-- Generator: Adobe Illustrator 28.2.0, SVG Export Plug-In . SVG Version: 6.00 Build 0)  -->
<svg version="1.1" id="Layer_1" xmlns="http://www.w3.org/2000/svg" xmlns:xlink="http://www.w3.org/1999/xlink" x="0px" y="0px"
	 width="720px" height="720px" viewBox="0 0 720 720" style="enable-background:new 0 0 720 720;" xml:space="preserve">
<style type="text/css">
	.st0{fill:#0043A5;}
</style>
<g>
	<path class="st0" d="M708.4,391.7c-71.3,4.4-140.4-2-208.8-18.6C434,357.2,372.8,332,321.1,287.3c-41.3-35.7-69.7-79.7-83.6-132.6
		c-5.6-21.3,0.7-36.1,17.6-40.6c16.3-4.3,28.8,4.3,34.5,25.2c14.7,54.4,46.6,95.6,94.7,127.4c14.6-69.9,51.7-123.3,109.6-165.2
		c-85.7-39.7-170-44.5-253.5-5.2c-49.1,23.1-67.7,77-53.9,139.1c10.1,45.5,30.3,86.5,57.3,124.4c7,9.8,13.9,19.6,22.7,32
		c-87.1,0-170.3,0-256,0c-4.6-126.6,39.3-231.5,140.9-306C271.6-2.5,401.6-9.8,533,61.6C650.3,125.4,722.2,263.1,708.4,391.7z
		 M654.5,338.1c-10-84.2-46-150.9-109.3-203c-58.2,31.4-93.8,78-106.9,141.4c-1.7,8-6,17.2,7.3,22.3
		C511.9,324.6,580.8,335.8,654.5,338.1z M66.5,337c33.9,0,65.6,0,99.2,0c-23.7-48.2-39.6-96.6-38-154.1
		C91.9,231.3,71.7,279.8,66.5,337z"/>
	<path class="st0" d="M11.4,416.2c47.2-6.8,85.5,5.1,119.6,31.9c22.3,17.5,47.4,29.9,75.4,23.6c21.3-4.8,42.7-14.7,60.9-26.9
		c60.8-41,124.7-41.9,184.5,0c0.5,0.4,1.1,0.7,1.6,1.1c52.5,37,86.3,37.5,138,0.4c31.7-22.8,66-35,105.3-31.8
		c3.1,0.3,6.2,0.9,12,1.7c-2.9,14.7-4.6,28.7-8.9,41.8c-1.6,4.8-9.3,10.8-14.2,10.7c-23.9-0.2-43.7,8.9-62.8,22.4
		c-70.4,49.9-129.9,49.6-199.9-0.1c-42.8-30.4-82.5-30.4-125.5,0c-70.8,49.9-128.4,50-199.8-0.1c-18.4-12.9-37.7-23-60.9-21.6
		c-10.5,0.6-15.4-3.5-17-13.6C17.5,442.9,14.4,430.5,11.4,416.2z"/>
	<path class="st0" d="M41.7,513.8c36.1-0.1,64.9,12.9,91.7,32.3c48.7,35.3,86.3,35.3,135,0.7c64.3-45.7,127.6-45.4,192.1,0.7
		c46.7,33.4,84.6,33.6,131.9,0.3c25.6-18,51.9-33.6,85.1-33.2c-24.8,93.9-142,141.6-225.3,92.6c-5-2.9-10.2-5.9-14.6-9.6
		c-47.8-39.8-98.4-39.5-146.4-0.5c-31.2,25.4-68.4,32.6-107.9,28.6c-7.1-0.7-14.4-1.4-20.9-3.8C108.3,602.5,62.6,573.8,41.7,513.8z"
		/>
	<path class="st0" d="M528.1,678.5c-22.1,8.8-43.8,18.6-66.4,25.6c-6.1,1.9-15.8-2.9-22-7.4c-23.5-16.9-47.2-31-78.1-29.5
		c-24.8,1.2-45.5,10.7-63.3,26.2c-17.4,15.2-34.7,16.9-54.9,7.4c-17.9-8.4-36.5-15.6-55-23.3c1.6-3.1,2.2-5.1,2.7-5
		c35.1,1.7,62.5-14.8,90.7-33.7c53.3-35.8,109.5-36.3,164.5-2.9c25.7,15.6,48.3,37.1,82.1,35.4C528.3,673.7,528.2,676.1,528.1,678.5
		z"/>
	<path class="st0" d="M601.3,277.9c-0.4,20.8-17.9,38.1-38.5,38.1c-21.2,0-39.7-18.9-39.1-40c0.6-21.6,19.1-38.7,40.9-37.7
		C585.7,239.3,601.8,256.6,601.3,277.9z"/>
</g>
</svg>
