<?xml version="1.0" encoding="utf-8"?>
<!-- Generator: Adobe Illustrator 28.2.0, SVG Export Plug-In . SVG Version: 6.00 Build 0)  -->
<svg version="1.1" id="Layer_1" xmlns="http://www.w3.org/2000/svg" xmlns:xlink="http://www.w3.org/1999/xlink" x="0px" y="0px"
	 width="720px" height="165.6px" viewBox="0 0 720 165.6" style="enable-background:new 0 0 720 165.6;" xml:space="preserve">
<style type="text/css">
	.st0{fill:#0043A5;}
</style>
<g>
	<g>
		<path class="st0" d="M140.7,86.3c-13.1,0.8-25.8-0.4-38.4-3.4C90.2,80,79,75.4,69.5,67.2c-7.6-6.6-12.8-14.6-15.4-24.4
			c-1-3.9,0.1-6.6,3.2-7.5c3-0.8,5.3,0.8,6.3,4.6c2.7,10,8.6,17.6,17.4,23.4c2.7-12.9,9.5-22.7,20.2-30.4c-15.8-7.3-31.3-8.2-46.6-1
			c-9,4.2-12.5,14.2-9.9,25.6c1.9,8.4,5.6,15.9,10.5,22.9c1.3,1.8,2.6,3.6,4.2,5.9c-16,0-31.3,0-47.1,0
			c-0.9-23.3,7.2-42.6,25.9-56.3c22.1-16.2,46.1-17.6,70.2-4.4C130,37.4,143.2,62.7,140.7,86.3z M130.8,76.5
			c-1.8-15.5-8.5-27.7-20.1-37.3c-10.7,5.8-17.3,14.4-19.7,26c-0.3,1.5-1.1,3.2,1.3,4.1C104.5,74,117.2,76.1,130.8,76.5z M22.6,76.3
			c6.2,0,12.1,0,18.2,0c-4.4-8.9-7.3-17.8-7-28.3C27.3,56.9,23.6,65.8,22.6,76.3z"/>
		<path class="st0" d="M12.5,90.9c8.7-1.3,15.7,0.9,22,5.9c4.1,3.2,8.7,5.5,13.9,4.3c3.9-0.9,7.8-2.7,11.2-5
			c11.2-7.5,22.9-7.7,33.9,0c0.1,0.1,0.2,0.1,0.3,0.2c9.6,6.8,15.9,6.9,25.4,0.1c5.8-4.2,12.1-6.4,19.4-5.8c0.6,0,1.1,0.2,2.2,0.3
			c-0.5,2.7-0.9,5.3-1.6,7.7c-0.3,0.9-1.7,2-2.6,2c-4.4,0-8,1.6-11.5,4.1c-12.9,9.2-23.9,9.1-36.8,0c-7.9-5.6-15.2-5.6-23.1,0
			c-13,9.2-23.6,9.2-36.7,0c-3.4-2.4-6.9-4.2-11.2-4c-1.9,0.1-2.8-0.6-3.1-2.5C13.6,95.8,13.1,93.5,12.5,90.9z"/>
		<path class="st0" d="M18.1,108.8c6.6,0,11.9,2.4,16.9,5.9c9,6.5,15.9,6.5,24.8,0.1c11.8-8.4,23.5-8.4,35.3,0.1
			c8.6,6.1,15.6,6.2,24.3,0.1c4.7-3.3,9.6-6.2,15.6-6.1c-4.6,17.3-26.1,26-41.4,17c-0.9-0.5-1.9-1.1-2.7-1.8
			c-8.8-7.3-18.1-7.3-26.9-0.1c-5.7,4.7-12.6,6-19.8,5.3c-1.3-0.1-2.6-0.3-3.9-0.7C30.3,125.1,21.9,119.8,18.1,108.8z"/>
		<path class="st0" d="M107.5,139.1c-4.1,1.6-8.1,3.4-12.2,4.7c-1.1,0.3-2.9-0.5-4-1.4c-4.3-3.1-8.7-5.7-14.4-5.4
			c-4.6,0.2-8.4,2-11.6,4.8c-3.2,2.8-6.4,3.1-10.1,1.4c-3.3-1.6-6.7-2.9-10.1-4.3c0.3-0.6,0.4-0.9,0.5-0.9
			c6.5,0.3,11.5-2.7,16.7-6.2c9.8-6.6,20.1-6.7,30.3-0.5c4.7,2.9,8.9,6.8,15.1,6.5C107.6,138.2,107.5,138.6,107.5,139.1z"/>
		<path class="st0" d="M121,65.4c-0.1,3.8-3.3,7-7.1,7c-3.9,0-7.3-3.5-7.2-7.3c0.1-4,3.5-7.1,7.5-6.9
			C118.1,58.3,121.1,61.5,121,65.4z"/>
	</g>
	<g>
		<path class="st0" d="M189.9,134.5c-9.9,0-18.2-2.2-25.1-6.7c-6.9-4.5-11.7-10.6-14.4-18.4l14.5-8.5c4.1,11.5,12.6,17.3,25.5,17.3
			c6.3,0,11.1-1.2,14.3-3.7c3.2-2.5,4.8-5.7,4.8-9.7c0-4.2-1.7-7.4-5.1-9.6c-3.4-2.2-9.5-4.6-18.1-7.2c-4.9-1.5-8.8-2.8-11.9-4.1
			c-3-1.3-6.2-3-9.6-5.3c-3.4-2.3-5.9-5.1-7.5-8.6c-1.7-3.4-2.5-7.4-2.5-12c0-9.1,3.2-16.3,9.7-21.6c6.4-5.3,14.2-8,23.3-8
			c8.2,0,15.4,2,21.5,6c6.1,4,10.9,9.5,14.2,16.5L209,59c-4.3-9.6-11.5-14.3-21.5-14.3c-4.9,0-8.8,1.1-11.7,3.4
			c-2.9,2.3-4.4,5.4-4.4,9.3c0,3.8,1.5,6.8,4.5,9c3,2.2,8.4,4.5,16.2,7c3.9,1.3,6.8,2.2,8.6,2.9c1.8,0.6,4.3,1.6,7.6,3
			c3.3,1.4,5.7,2.7,7.4,4.1c1.7,1.4,3.4,3.1,5.3,5.1c1.9,2,3.2,4.4,4,7c0.8,2.6,1.2,5.6,1.2,8.9c0,9.3-3.3,16.6-10,22
			C209.4,131.8,200.7,134.5,189.9,134.5z"/>
		<path class="st0" d="M252,102.8c1.2,5.6,3.9,9.8,8,12.8c4.2,3,9.3,4.5,15.4,4.5c7.4,0,13.1-2.3,17.2-7c1-1.2,2.7-1.5,4-0.7
			l10.6,6.2c-7.2,10.6-17.9,15.9-32,15.9c-11.9,0-21.5-3.6-28.8-10.9c-7.3-7.3-11-16.5-11-27.6c0-10.9,3.6-20.1,10.8-27.4
			c7.2-7.4,16.5-11,27.8-11c10.7,0,19.5,3.8,26.4,11.3c6.9,7.5,10.3,16.6,10.3,27.4c0,1.7-0.2,3.9-0.6,6.6H252z M251.9,89.9h43
			c-1.1-5.9-3.5-10.4-7.4-13.5c-3.9-3-8.4-4.5-13.5-4.5c-5.9,0-10.7,1.6-14.6,4.8C255.5,79.9,253,84.3,251.9,89.9z"/>
		<path class="st0" d="M382.3,59.5h15.8v73.2h-15.8v-10.5c-6,8.3-14.5,12.4-25.6,12.4c-10,0-18.6-3.7-25.8-11.2
			c-7.1-7.5-10.7-16.6-10.7-27.3c0-10.8,3.6-19.9,10.7-27.4c7.1-7.4,15.7-11.1,25.8-11.1c11.1,0,19.7,4.1,25.6,12.3V59.5z
			 M342.6,112.8c4.4,4.4,9.9,6.7,16.5,6.7c6.6,0,12.1-2.2,16.5-6.7c4.4-4.4,6.6-10,6.6-16.8s-2.2-12.3-6.6-16.8
			c-4.4-4.4-9.9-6.7-16.5-6.7c-6.6,0-12.1,2.2-16.5,6.7c-4.4,4.4-6.6,10-6.6,16.8S338.2,108.4,342.6,112.8z"/>
		<path class="st0" d="M451.6,45.4c-11.5-1.1-17.3,3.8-17.3,14.5v1.5h17.3v15.2h-17.3v57.9h-15.8V76.6h-11.1V61.4h11.1v-1.5
			c0-10,2.8-17.7,8.4-22.9c5.6-5.2,13.8-7.5,24.7-6.8V45.4z"/>
		<path class="st0" d="M499.6,134.5c-10.7,0-19.9-3.7-27.4-11.1C464.7,116,461,106.9,461,96s3.8-19.9,11.3-27.4
			c7.5-7.4,16.6-11.1,27.4-11.1c10.8,0,20,3.7,27.4,11.1c7.5,7.4,11.2,16.5,11.2,27.4s-3.7,19.9-11.2,27.4
			C519.6,130.8,510.4,134.5,499.6,134.5z M483.4,112.6c4.4,4.4,9.8,6.6,16.2,6.6c6.4,0,11.9-2.2,16.2-6.6c4.4-4.4,6.6-9.9,6.6-16.5
			c0-6.6-2.2-12.1-6.6-16.5c-4.4-4.4-9.8-6.6-16.2-6.6c-6.4,0-11.9,2.2-16.2,6.6c-4.4,4.4-6.6,9.9-6.6,16.5
			C476.8,102.7,479,108.2,483.4,112.6z"/>
		<path class="st0" d="M586.2,134.5c-10.7,0-19.9-3.7-27.4-11.1c-7.5-7.4-11.3-16.5-11.3-27.4s3.8-19.9,11.3-27.4
			c7.5-7.4,16.6-11.1,27.4-11.1c10.8,0,20,3.7,27.4,11.1c7.5,7.4,11.2,16.5,11.2,27.4s-3.7,19.9-11.2,27.4
			C606.2,130.8,597.1,134.5,586.2,134.5z M570,112.6c4.4,4.4,9.8,6.6,16.2,6.6c6.4,0,11.9-2.2,16.2-6.6c4.4-4.4,6.6-9.9,6.6-16.5
			c0-6.6-2.2-12.1-6.6-16.5c-4.4-4.4-9.8-6.6-16.2-6.6c-6.4,0-11.9,2.2-16.2,6.6c-4.4,4.4-6.6,9.9-6.6,16.5
			C563.4,102.7,565.6,108.2,570,112.6z"/>
		<path class="st0" d="M696.3,30.2h15.8v102.4h-15.8v-10.5c-6,8.3-14.5,12.4-25.6,12.4c-10,0-18.6-3.7-25.8-11.2
			c-7.1-7.5-10.7-16.6-10.7-27.3c0-10.8,3.6-19.9,10.7-27.4c7.1-7.4,15.7-11.1,25.8-11.1c11.1,0,19.7,4.1,25.6,12.3V30.2z
			 M656.6,112.8c4.4,4.4,9.9,6.7,16.5,6.7c6.6,0,12.1-2.2,16.5-6.7c4.4-4.4,6.6-10,6.6-16.8s-2.2-12.3-6.6-16.8
			c-4.4-4.4-9.9-6.7-16.5-6.7c-6.6,0-12.1,2.2-16.5,6.7c-4.4,4.4-6.6,10-6.6,16.8S652.2,108.4,656.6,112.8z"/>
	</g>
</g>
</svg>
